<?xml version="1.0" standalone="no"?>
<!DOCTYPE svg PUBLIC "-//W3C//DTD SVG 20010904//EN"
 "http://www.w3.org/TR/2001/REC-SVG-20010904/DTD/svg10.dtd">
<svg version="1.0" xmlns="http://www.w3.org/2000/svg"
 width="225.000000pt" height="225.000000pt" viewBox="0 0 225.000000 225.000000"
 preserveAspectRatio="xMidYMid meet">

<g transform="translate(0.000000,225.000000) scale(0.100000,-0.100000)"
fill="#000000" stroke="none">
<path d="M1005 2059 c-109 -15 -181 -36 -279 -83 -227 -108 -388 -292 -476
-540 l-35 -101 0 -180 c0 -169 2 -185 27 -255 48 -135 54 -150 63 -143 4 5 5
3 2 -4 -10 -15 53 -115 69 -109 7 3 10 -2 8 -12 -3 -9 7 -30 21 -47 69 -79 97
-105 107 -99 7 4 8 2 4 -4 -9 -14 112 -104 128 -95 6 3 8 3 4 -2 -10 -10 50
-48 63 -40 5 4 9 2 9 -4 0 -13 67 -34 82 -25 8 5 9 2 5 -10 -6 -14 -3 -16 14
-11 14 5 19 3 15 -3 -4 -6 1 -11 11 -11 10 1 43 -7 73 -16 87 -26 250 -31 350
-11 47 10 95 24 108 32 13 9 32 12 44 8 14 -4 18 -3 13 6 -4 7 -2 10 6 9 19
-3 79 21 79 32 0 4 7 6 15 3 18 -7 20 12 3 20 -7 3 -3 3 10 0 17 -4 41 7 90
40 80 55 122 91 122 106 0 5 5 10 11 10 5 0 7 5 3 12 -4 6 -3 8 4 5 5 -4 32
21 60 55 165 210 233 488 181 733 -45 208 -136 368 -288 507 -193 175 -469
262 -726 227z m549 -285 c14 -5 16 -54 16 -449 0 -287 -4 -454 -11 -472 -15
-41 -85 -101 -133 -114 -51 -14 -128 -5 -169 19 -94 54 -104 178 -20 252 46
41 74 52 140 58 l63 5 0 183 c0 101 -4 184 -8 184 -5 0 -73 -9 -153 -20 -154
-21 -227 -35 -271 -52 l-28 -10 0 -300 c0 -242 -3 -305 -15 -334 -8 -20 -12
-41 -8 -47 3 -5 1 -7 -4 -4 -6 4 -19 -3 -29 -15 -30 -33 -94 -58 -152 -58 -62
0 -108 17 -141 53 -13 15 -27 25 -30 23 -3 -2 -7 24 -9 59 -4 71 9 103 55 147
37 36 73 48 144 50 l59 2 2 355 3 355 35 12 c129 45 418 104 570 117 25 2 53
4 62 5 9 1 23 -1 32 -4z m-600 -1493 c3 -4 -6 -6 -19 -3 -14 2 -25 6 -25 8 0
8 39 4 44 -5z m369 2 c-7 -2 -21 -2 -30 0 -10 3 -4 5 12 5 17 0 24 -2 18 -5z"/>
</g>
</svg>
